<?xml version="1.0" encoding="utf-8"?>
<!-- Svg Vector Icons : http://www.onlinewebfonts.com/icon -->
<!DOCTYPE svg PUBLIC "-//W3C//DTD SVG 1.1//EN" "http://www.w3.org/Graphics/SVG/1.1/DTD/svg11.dtd">
<svg version="1.1" xmlns="http://www.w3.org/2000/svg" xmlns:xlink="http://www.w3.org/1999/xlink" x="0px" y="0px" viewBox="0 0 256 256" enable-background="new 0 0 256 256" xml:space="preserve">
<metadata> Svg Vector Icons : http://www.onlinewebfonts.com/icon </metadata>
<g><g><g><path fill="#6DAFB3" d="M105.4,8.3c-0.3,0.8-1.3,4.8-2.2,8.9c-5,22.7-12.4,35.5-26.8,46.2c-6.9,5.2-14.7,8.6-29.7,13.1c-6.2,1.9-6.3,3.4-0.1,5.1c13,3.8,18.5,5.9,24.7,9.6c11,6.7,18.9,15.4,24.4,26.8c3.4,7,5.1,12.4,7.6,23.2c1.9,8.3,2.3,9.8,3.2,9.8c0.7,0,1.3-1.8,3.2-10.3c4.8-21.9,12.5-35.3,26.1-45.5c7.7-5.8,14.5-8.9,27-12.5c9.8-2.8,10.5-4.1,3.4-6.2c-15.5-4.6-20-6.5-27.4-11.5c-8.3-5.6-15.4-13.2-20-21.6c-4.1-7.3-6.6-14.7-9.4-27.2c-1.6-7-2.3-9.3-3-9.3C106.1,7,105.7,7.6,105.4,8.3z"/><path fill="#6DAFB3" d="M190.9,114.5c-0.2,0.6-1,3.8-1.7,7c-3.4,15.7-8.3,25.7-16.5,33.8c-8.3,8.2-14.7,11.6-30.4,16.2c-4.4,1.3-5,1.7-4.3,2.8c0.3,0.5,2.8,1.5,6.9,2.7c12.3,3.5,20.4,8,27.8,15.3c8.3,8.3,12.8,17.4,16.6,34.1c0.9,4.1,1.9,7.6,2.1,7.8c0.7,0.7,1.4-1.2,3-8.3c3.6-15.9,8.2-25.3,16.2-33.4c8-8,15.3-11.8,31.4-16.5c6-1.8,5.4-2.7-3.2-5.2c-13.3-3.8-21.7-8.5-29.2-16.4c-7.3-7.8-12-17.6-15.1-31.4c-1.9-8.2-2.2-9.5-2.8-9.5C191.6,113.5,191.1,114,190.9,114.5z"/><path fill="#6DAFB3" d="M50.3,158.6c-0.3,1.1-1.1,4.3-1.8,7.3c-4.6,19.3-14.8,29.8-33.7,35c-4.2,1.1-5.5,1.9-4.4,2.7c0.3,0.3,3.1,1.2,6,2.1c17.8,5.2,27.7,15.8,32.2,34.5c2.2,9.3,2.2,9.4,3,8.4c0.3-0.4,1-2.7,1.5-5.1c2.6-13.3,7.5-22.4,15.7-29.1c5-4.2,9.8-6.4,19.4-9.3c5.4-1.6,5.5-2.3,0.7-3.7c-8.9-2.6-13.9-4.8-18.8-8.5c-6.2-4.6-10.4-10.3-13.4-17.6c-1.5-3.7-4.3-14.2-4.3-15.9c0-0.4-0.3-1.2-0.7-1.7C50.9,156.8,50.8,156.8,50.3,158.6z"/></g></g></g>
</svg>